REM GENRE Rock
REM DATE 2017
REM DISCID 22037103
REM COMMENT "ExactAudioCopy v1.3"
PERFORMER "Аквариум"
TITLE "Двери Травы"
REM COMPOSER ""
FILE "Аквариум - Двери Травы.flac" WAVE
  TRACK 01 AUDIO
    TITLE "Двери Травы"
    PERFORMER "Аквариум"
    REM COMPOSER ""
    FLAGS DCP
    INDEX 01 00:00:00
  TRACK 02 AUDIO
    TITLE "Не Трать Время "
    PERFORMER "Аквариум"
    REM COMPOSER ""
    FLAGS DCP
    INDEX 00 03:13:18
    INDEX 01 03:15:18
  TRACK 03 AUDIO
    TITLE "Для Тех, Кто Влюблён"
    PERFORMER "Аквариум"
    REM COMPOSER ""
    FLAGS DCP
    INDEX 00 09:20:65
    INDEX 01 09:22:65
